<?xml version="1.0" encoding="utf-8"?><svg viewBox="0 0 59 59" xmlns="http://www.w3.org/2000/svg" xmlns:xlink="http://www.w3.org/1999/xlink"><style>:root>svg{display:none}:root>svg:target{display:block}</style><svg fill="none" viewBox="0 0 9 14" id="arrow-left" xmlns="http://www.w3.org/2000/svg"><path d="M2.507 6.973c.096.111.144.173.192.223 1.444 1.497 2.877 2.995 4.322 4.48.239.247.49.483.716.742.43.483.31 1.201-.238 1.486-.335.173-.729.111-1.015-.174-.263-.26-.514-.52-.765-.78-1.6-1.658-3.212-3.316-4.812-4.975C.61 7.666.31 7.345 0 6.998c.036-.05.096-.124.155-.186C2.233 4.659 4.322 2.505 6.4.339c.358-.371.764-.396 1.05-.272.574.247.741 1.002.311 1.485-.274.31-.561.582-.836.879-1.397 1.46-2.794 2.896-4.179 4.344-.071.062-.143.111-.239.198z" fill="#E6514A"/></svg><svg fill="none" viewBox="0 0 13 21" id="arrow-left-b" xmlns="http://www.w3.org/2000/svg"><path fill-rule="evenodd" clip-rule="evenodd" d="M9.979.485a1.858 1.858 0 012.503 0 1.58 1.58 0 010 2.34l-8.21 7.674 8.21 7.677a1.58 1.58 0 010 2.34 1.858 1.858 0 01-2.503 0l-9.46-8.847a1.58 1.58 0 010-2.34L9.978.486z" fill="#3035C4"/></svg><svg fill="none" viewBox="0 0 9 14" id="arrow-right" xmlns="http://www.w3.org/2000/svg"><path d="M5.496 7.027c-.096-.111-.144-.173-.191-.223C3.86 5.307 2.427 3.81.982 2.324c-.239-.247-.49-.483-.716-.742C-.164 1.099-.044.38.505.096c.334-.173.728-.111 1.014.174.263.26.514.52.765.78 1.6 1.658 3.212 3.316 4.812 4.975.298.309.597.63.907.977-.036.05-.095.124-.155.186-2.078 2.153-4.167 4.307-6.245 6.473-.358.371-.764.396-1.05.272-.574-.248-.741-1.002-.311-1.485.274-.31.561-.582.836-.879 1.397-1.46 2.794-2.896 4.179-4.344.071-.062.143-.111.239-.198z" fill="#E6514A"/></svg><svg fill="none" viewBox="0 0 13 21" id="arrow-right-b" xmlns="http://www.w3.org/2000/svg"><path fill-rule="evenodd" clip-rule="evenodd" d="M3.021 20.515a1.858 1.858 0 01-2.503 0 1.58 1.58 0 010-2.34l8.21-7.674-8.21-7.677a1.58 1.58 0 010-2.34 1.858 1.858 0 012.503 0l9.46 8.847a1.58 1.58 0 010 2.34l-9.46 8.844z" fill="#3035C4"/></svg><svg fill="none" viewBox="0 0 51 49" id="benefit-1" xmlns="http://www.w3.org/2000/svg"><path d="M31.925 24.498a5.512 5.512 0 100 11.024 5.512 5.512 0 000-11.024zM35.341 30a3.416 3.416 0 11-6.832 0 3.416 3.416 0 016.832 0zm3.741-18.328H22.578a1.048 1.048 0 000 2.096h16.504a1.048 1.048 0 100-2.096zm-5.239-4.045H22.578a1.048 1.048 0 000 2.096h11.265a1.048 1.048 0 000-2.096z" fill="#3035C4"/><path d="M14.32 12.395a3.83 3.83 0 00.934-2.494 3.867 3.867 0 10-7.723 0c.002.916.333 1.801.932 2.494a6.36 6.36 0 00-3.426 5.627c0 .579.469 1.048 1.048 1.048H16.7c.578 0 1.047-.47 1.047-1.048a6.361 6.361 0 00-3.426-5.627zm-2.933-4.254a1.77 1.77 0 110 3.542 1.77 1.77 0 010-3.542zm-4.118 8.844a4.254 4.254 0 018.257 0H7.269z" fill="#E6514A"/><path d="M48.22 1.298H2.344A2.21 2.21 0 00.133 3.509v28.02a2.21 2.21 0 002.21 2.211H22.82v4.276c0 .578.47 1.047 1.048 1.047h2.211v8.886a1.048 1.048 0 001.488.954l4.338-1.99 4.338 1.99c.139.063.289.095.44.094.58 0 1.048-.469 1.048-1.047v-8.866h2.222c.579 0 1.048-.469 1.048-1.047V33.76H48.2a2.211 2.211 0 002.232-2.232V3.51c0-1.22-.99-2.21-2.211-2.21zM35.645 46.357l-3.29-1.51a1.048 1.048 0 00-.87 0l-3.29 1.51v-7.24l2.986 2.986a1.048 1.048 0 001.478 0l2.986-2.987v7.24zm4.192-14.377l-.63.629a1.048 1.048 0 00-.303.744v3.657h-3.657a1.048 1.048 0 00-.744.304l-2.578 2.514-2.588-2.588a1.049 1.049 0 00-.744-.304h-3.657v-3.604a1.048 1.048 0 00-.304-.744l-2.588-2.589 2.588-2.588a1.05 1.05 0 00.304-.744v-3.605h3.657c.278.002.546-.107.744-.303l2.588-2.589 2.588 2.589c.198.196.466.305.744.303h3.647v3.658c-.002.278.108.546.304.744l2.588 2.588-1.96 1.928zm8.487-.42a.115.115 0 01-.115.116h-5.114l.902-.901a1.048 1.048 0 000-1.478L41 26.207v-4.192c0-.58-.47-1.048-1.048-1.048h-4.276l-3.06-3.06a1.048 1.048 0 00-1.477 0l-2.976 3.06h-4.275c-.579 0-1.048.469-1.048 1.048v4.191l-3.018 3.018a1.048 1.048 0 000 1.477l.901.902H2.343a.115.115 0 01-.115-.116V3.51c0-.064.052-.115.116-.115H48.22c.063 0 .115.051.115.115l-.01 28.052z" fill="#3035C4"/></svg><svg fill="none" viewBox="0 0 56 55" id="benefit-2" xmlns="http://www.w3.org/2000/svg"><path d="M55.5 6.417v27.5a6.424 6.424 0 01-6.417 6.416h-10.88l.687 5.5h1.943a2.75 2.75 0 010 5.5h-11V49.5h11a.917.917 0 000-1.833h-11v-1.834h7.215l-.688-5.5h-6.527V38.5h19.25a4.583 4.583 0 004.584-4.583V33H29.833v-1.833h23.834V6.417a4.583 4.583 0 00-4.584-4.584H12.417a4.583 4.583 0 00-4.584 4.584v19.25H6V6.417A6.424 6.424 0 0112.417 0h36.666A6.424 6.424 0 0155.5 6.417z" fill="#3035C4"/><path d="M48.167 34.833H50v1.834h-1.833v-1.834zM25.25 27.5h-22A2.758 2.758 0 00.5 30.25v22A2.758 2.758 0 003.25 55h22A2.758 2.758 0 0028 52.25v-22a2.758 2.758 0 00-2.75-2.75zm.917 24.75a.917.917 0 01-.917.917h-22a.917.917 0 01-.917-.917v-22a.917.917 0 01.917-.917h22a.917.917 0 01.917.917v22z" fill="#3035C4"/><path d="M17.281 39.725l-2.933-1.955a1.833 1.833 0 00-2.848 1.526v3.908a1.834 1.834 0 002.85 1.53l2.933-1.955a1.833 1.833 0 000-3.05l-.002-.004zm-3.948 3.485v-3.914l2.934 1.954-2.934 1.96z" fill="#E6514A"/><path d="M14.25 33a8.25 8.25 0 108.25 8.25A8.26 8.26 0 0014.25 33zm0 14.667a6.417 6.417 0 116.417-6.417 6.424 6.424 0 01-6.417 6.417zm32.615-30.122l-2.365-.788v-.285a4.54 4.54 0 001.833-3.639v-2.75a4.583 4.583 0 00-9.166 0v2.75A4.54 4.54 0 0039 16.473v.284l-2.365.788A4.571 4.571 0 0033.5 21.89v4.693a.916.916 0 00.917.917h14.666a.917.917 0 00.917-.917V21.89a4.571 4.571 0 00-3.135-4.345zM39 10.083a2.75 2.75 0 115.5 0v.89a.905.905 0 01-.605-.477l-.403-.825a.924.924 0 00-1.476-.239l-.22.23A4.564 4.564 0 0139 10.954v-.87zm0 2.714a6.27 6.27 0 003.392-1.238 2.72 2.72 0 002.108 1.247v.027a2.75 2.75 0 01-5.5 0v-.036zm3.978 5.298l-1.228.926-1.228-.926a.912.912 0 00.311-.678v-.092a4.63 4.63 0 001.834 0v.092a.911.911 0 00.311.678zm5.189 7.572H35.333V21.89a2.739 2.739 0 011.88-2.603l1.274-.431L41.2 20.9a.916.916 0 001.1 0l2.713-2.044 1.275.43a2.739 2.739 0 011.879 2.604v3.777z" fill="#3035C4"/><path d="M29.833 11.437v4.146h1.834v-5.5a.916.916 0 00-.576-.851l-9.167-3.667a.923.923 0 00-.682 0l-9.166 3.667a.916.916 0 000 1.703l3.09 1.236v5.246a.917.917 0 00.917.916h11a.917.917 0 00.917-.916V12.17l1.833-.734zm-8.25-4.033l6.7 2.68-6.7 2.679-6.699-2.68 6.7-2.68zm4.584 9.096H17v-3.596l4.242 1.698c.22.086.463.086.682 0l4.243-1.698V16.5z" fill="#E6514A"/><path d="M15.167 20.167H17V22h-1.833v-1.833zm3.666 0H28V22h-9.167v-1.833zm-3.666 3.666H28v1.834H15.167v-1.834z" fill="#3035C4"/></svg><svg fill="none" viewBox="0 0 59 59" id="benefit-3" xmlns="http://www.w3.org/2000/svg"><path d="M58.921 43.876l-4.838-11.623V2.95A2.959 2.959 0 0051.133 0H7.867a2.959 2.959 0 00-2.95 2.95v29.303L.079 43.876A.984.984 0 000 44.25v3.933a2.959 2.959 0 002.95 2.95h35.4v-1.966H2.95a.983.983 0 01-.983-.984v-2.95H35.4v-1.966H2.458l4.1-9.834h45.883l4.592 11.014v3.736a.984.984 0 01-.983.984h-1.967v1.966h1.967a2.959 2.959 0 002.95-2.95V44.25a.984.984 0 00-.079-.374zm-6.804-12.41H6.883V2.95a.983.983 0 01.984-.983h43.266a.984.984 0 01.984.983v28.517z" fill="#3035C4"/><path d="M7.867 39.333h1.966V41.3H7.867v-1.967zm3.933 0h1.967V41.3H11.8v-1.967zm.983-3.933h1.967v1.967h-1.967V35.4zm-3.933 0h1.967v1.967H8.85V35.4zm7.867 0h1.966v1.967h-1.966V35.4zm3.933 0h1.967v1.967H20.65V35.4zm3.933 0h1.967v1.967h-1.967V35.4zm3.934 0h1.966v1.967h-1.966V35.4zm3.933 0h1.967v1.967H32.45V35.4zm3.933 0h1.967v1.967h-1.967V35.4zm-20.65 3.933h3.934V41.3h-3.934v-1.967zm5.9 0h15.734V41.3H21.633v-1.967zM47.2 7.867h-2.95v-2.95a.983.983 0 00-.983-.984h-9.834A4.91 4.91 0 0029.5 5.93a4.911 4.911 0 00-3.933-1.997h-9.834a.983.983 0 00-.983.984v2.95H11.8a.983.983 0 00-.983.983v19.667a.983.983 0 00.983.983h35.4a.983.983 0 00.983-.983V8.85a.983.983 0 00-.983-.983zM14.75 27.533h-1.967v-17.7h1.967v17.7zm1.967 0v-1.966h8.85a2.964 2.964 0 012.782 1.966H16.718zm11.8-2.92a4.842 4.842 0 00-2.95-1.013h-8.85V5.9h8.85a2.959 2.959 0 012.95 2.95v15.763zm13.766 2.92H30.65a2.963 2.963 0 012.783-1.966h8.85v1.966zm0-3.933h-8.85a4.842 4.842 0 00-2.95 1.013V8.85a2.96 2.96 0 012.95-2.95h8.85v17.7zm3.934 3.933H44.25v-17.7h1.967v17.7z" fill="#3035C4"/><path d="M18.683 7.867h7.867v1.966h-7.867V7.867zm0 3.933h7.867v1.967h-7.867V11.8zm0 3.933h7.867V17.7h-7.867v-1.967zm0 3.934h7.867v1.966h-7.867v-1.966zm13.767-11.8h7.867v1.966H32.45V7.867zm0 3.933h7.867v1.967H32.45V11.8zm0 3.933h7.867V17.7H32.45v-1.967zm0 3.934h7.867v1.966H32.45v-1.966z" fill="#3035C4"/><path d="M46.217 39.333a3.933 3.933 0 100 7.867 3.933 3.933 0 000-7.867zm0 5.9a1.967 1.967 0 110-3.934 1.967 1.967 0 010 3.934z" fill="#E6514A"/><path d="M53.452 41.132a3.234 3.234 0 01-.602-.613 3.174 3.174 0 01-.017-.913 2.92 2.92 0 00-.568-2.389 2.91 2.91 0 00-2.386-.565 3.136 3.136 0 01-.915-.019 3.201 3.201 0 01-.611-.602 2.95 2.95 0 00-2.136-1.32 2.95 2.95 0 00-2.136 1.32c-.176.227-.382.43-.612.602-.302.051-.61.057-.914.019a2.916 2.916 0 00-2.387.565 2.92 2.92 0 00-.567 2.389c.038.303.032.611-.018.913a3.23 3.23 0 01-.602.613 2.948 2.948 0 00-1.32 2.135 2.95 2.95 0 001.32 2.134c.227.177.43.383.602.613.05.302.056.61.018.914a2.923 2.923 0 00.567 2.388 2 2 0 001.132.548v8.153a.983.983 0 001.573.786l3.344-2.507 3.343 2.507a.983.983 0 001.573-.786v-8.153a1.989 1.989 0 001.132-.548 2.92 2.92 0 00.568-2.388 3.175 3.175 0 01.017-.914 3.23 3.23 0 01.602-.613 2.95 2.95 0 001.32-2.134 2.95 2.95 0 00-1.32-2.135zM46.807 54.28a.983.983 0 00-1.18 0l-2.36 1.77v-6.184a.742.742 0 01.202.034c.23.172.436.375.612.602a2.949 2.949 0 002.136 1.32 2.952 2.952 0 002.136-1.32c.175-.227.381-.43.611-.602a.742.742 0 01.203-.034v6.184l-2.36-1.77zm5.351-10.358a3.868 3.868 0 00-1.123 1.339 4.009 4.009 0 00-.164 1.788c.017.289.047.773.038.851-.3.05-.606.057-.907.019a3.994 3.994 0 00-1.79.164 3.87 3.87 0 00-1.339 1.125 4.63 4.63 0 01-.632.65c-.258-.18-.487-.4-.677-.65a3.866 3.866 0 00-1.342-1.123 2.962 2.962 0 00-1.138-.19c-.222 0-.442.013-.65.026-.295.017-.775.047-.852.038-.05-.3-.055-.606-.017-.909.08-.6.025-1.211-.165-1.787a3.869 3.869 0 00-1.125-1.34 4.685 4.685 0 01-.65-.63c.18-.26.4-.489.65-.68a3.868 3.868 0 001.123-1.34c.19-.576.246-1.188.165-1.788-.018-.29-.048-.774-.039-.852.3-.05.606-.056.908-.019a3.993 3.993 0 001.788-.164 3.868 3.868 0 001.34-1.125c.189-.236.4-.454.632-.65.258.18.487.4.678.65.355.472.814.856 1.34 1.123a4.01 4.01 0 001.79.165c.295-.02.773-.05.851-.039.05.3.055.607.018.909-.081.6-.025 1.212.164 1.788a3.87 3.87 0 001.125 1.339c.242.188.457.409.64.655a3.42 3.42 0 01-.64.657z" fill="#E6514A"/></svg><svg fill="none" viewBox="0 0 59 59" id="benefit-4" xmlns="http://www.w3.org/2000/svg"><path d="M25.567 21.633h1.966V23.6h-1.966v-1.967zm5.9 0h1.966V23.6h-1.966v-1.967z" fill="#3035C4"/><path d="M57.033 1.967V0h-1.966v1.967H53.1v1.966h1.967V5.9h1.966V3.933H59V1.967h-1.967zm-8.85 11.8h1.967V11.8h1.967V9.833H50.15V7.867h-1.967v1.966h-1.966V11.8h1.966v1.967zM1.967 5.9h1.966V3.933H5.9V1.967H3.933V0H1.967v1.967H0v1.966h1.967V5.9zm6.883 7.867h1.967V11.8h1.966V9.833h-1.966V7.867H8.85v1.966H6.883V11.8H8.85v1.967z" fill="#E6514A"/><path d="M56.05 53.1a.983.983 0 110-1.967 2.95 2.95 0 000-5.9H40.317v-2.95h8.033a2.929 2.929 0 002.94-2.684l.827-9.027a1.397 1.397 0 00-.02-.285L50.76 23.63a4.917 4.917 0 00-4.819-3.963h-.6a3.023 3.023 0 00-2.97 2.222 2.956 2.956 0 002.862 3.678v6.568a7.065 7.065 0 00-2.989-.668 6.498 6.498 0 00-3.353.963 6.655 6.655 0 00-2.803-.924 5.277 5.277 0 00-.688-.04h-1.967v-1.061a7.925 7.925 0 003.678-4.838h.256a2.95 2.95 0 100-5.9v-4.534l2.95-.983v4.533h1.966v-5.9a.997.997 0 00-.668-.934l-11.8-3.933a.984.984 0 00-.63 0l-11.8 3.933a.983.983 0 000 1.868l4.248 1.416v4.534a2.95 2.95 0 100 5.9h.256a7.926 7.926 0 003.678 4.838v1.062H23.6a6.845 6.845 0 00-3.5.963 6.437 6.437 0 00-3.344-.963 6.98 6.98 0 00-2.99.668v-6.568a2.998 2.998 0 002.852-2.223 2.945 2.945 0 00-2.851-3.677h-.708A4.917 4.917 0 008.24 23.62l-1.337 6.667c-.016.094-.023.19-.02.285l.826 9.027a2.93 2.93 0 002.94 2.684h8.034v2.95h-11.8a6.883 6.883 0 100 13.767H56.05a2.95 2.95 0 000-5.9zM21.633 23.6a.983.983 0 110-1.967V23.6zm22.902-.305a.933.933 0 01-.255-.924 1.082 1.082 0 011.062-.738h.6a2.957 2.957 0 012.89 2.38l.315 1.554H47.2v-.984a.983.983 0 00-.983-.983h-.984a.933.933 0 01-.698-.305zm-9.204 13.452l1.269-3.156a4.884 4.884 0 011.71.806.983.983 0 001.18 0 4.695 4.695 0 012.774-.964h.03a4.917 4.917 0 013.264 1.259.965.965 0 001.062.167.983.983 0 00.58-.895v-6.43h2.34l.6 2.998-.806 8.89a.983.983 0 01-.984.895h-9.017a.983.983 0 00-.983.983v3.933h-5.074l-1.554-8.692.01-.02 2.37.797c.102.03.208.046.315.049a.983.983 0 00.914-.62zm-.796-3.314l-.689 1.721-1.681-.56-.364-.718.885-.443h1.849zm.865-14.75H23.6v-2.9l5.585 1.868c.205.065.425.065.63 0l5.585-1.868v2.9zm2.95 3.934a.983.983 0 01-.983.983v-1.967a.983.983 0 01.983.984zm-17.543-9.834l8.693-2.9 8.693 2.9-8.693 2.901-8.693-2.9zM23.6 23.6v-2.95h11.8v2.95a5.9 5.9 0 11-11.8 0zm5.389 14.583a.865.865 0 001.022 0l1.269 7.05h-3.56l1.269-7.05zm-.256-2.98l.393-.786h.748l.393.786-.767.777-.767-.777zm1.514-2.753h-1.494l-1.22-.61v-.629c1.29.34 2.645.34 3.934 0v.63l-1.22.609zm-3.933.983l.885.443-.364.718-1.681.56-.689-1.72h1.849zm-16.146-9.43a2.959 2.959 0 012.89-2.37h.709a1.002 1.002 0 01.954 1.23 1.082 1.082 0 01-1.063.737h-.875a.983.983 0 00-.983.983v.984H9.853l.315-1.564zm.482 16.314a.983.983 0 01-.984-.895l-.806-8.89.6-2.999h2.34v6.431a.983.983 0 001.642.728 4.917 4.917 0 013.265-1.259h.03a4.695 4.695 0 012.772.964.959.959 0 001.17 0 4.86 4.86 0 011.731-.797l1.259 3.147a.984.984 0 001.229.57l2.37-.796.01.02-1.554 8.692H20.65V41.3a.983.983 0 00-.983-.983h-9.018zm45.4 16.716H6.883a4.917 4.917 0 010-9.833H56.05a.983.983 0 110 1.967H6.883a2.95 2.95 0 000 5.9H56.05a.983.983 0 110 1.966zM53.277 53.1H6.883a.983.983 0 010-1.967h46.394a2.82 2.82 0 000 1.967z" fill="#3035C4"/></svg><svg fill="none" viewBox="0 0 54 53" id="benefit-5" xmlns="http://www.w3.org/2000/svg"><path d="M21.907 49.007a.777.777 0 00-.777.777v2.439a.777.777 0 101.554 0v-2.439a.777.777 0 00-.777-.777zm-16.533 0a.777.777 0 00-.777.777v2.439a.777.777 0 101.554 0v-2.439a.777.777 0 00-.777-.777zm42.278 0a.777.777 0 00-.777.777v2.439a.777.777 0 101.554 0v-2.439a.777.777 0 00-.777-.777zm-26.117-9.294l-3.812-1.071a1.024 1.024 0 01-.795-.997v-.156a4.513 4.513 0 001.798-1.103l.652-.651a5.473 5.473 0 001.613-3.748h.88c1.125 0 2.04-.915 2.04-2.04v-1.97c0-1.125-.915-2.04-2.04-2.04h-.876v-4.596c-.006-2.655-2.174-4.922-4.93-4.926h-4.83a4.933 4.933 0 00-4.93 4.926v4.596h-.876c-1.125 0-2.04.915-2.04 2.04v1.97c0 1.125.915 2.04 2.04 2.04h.88a5.473 5.473 0 001.613 3.748l.651.65a4.51 4.51 0 001.799 1.104v.154c0 .455-.307.86-.745.983l-3.863 1.087C2.422 40.392 0 43.338 0 46.73v5.493a.777.777 0 101.554 0V46.73c-.01-2.624 1.947-5.022 4.602-5.513l3.573-1.005a8.11 8.11 0 003.929 1.035c1.505 0 3.069-.54 3.912-1.034l3.572 1.004c2.596.483 4.62 2.832 4.604 5.514v5.492a.777.777 0 101.554 0v-5.492c0-3.393-2.423-6.34-5.765-7.018zm-.54-12.222h.876c.268 0 .487.218.487.486v1.97a.487.487 0 01-.487.486h-.876V27.49zm-14.69 2.942h-.876a.487.487 0 01-.487-.486v-1.97c0-.268.219-.486.487-.486h.876v2.942zm12.958-10.169c.115.339.178.7.178 1.077v4.554a3.446 3.446 0 01-1.3-.495 3.468 3.468 0 01-1.04-1.039 8.906 8.906 0 002.162-4.097zM7.86 21.341a3.378 3.378 0 013.376-3.372h4.83c.693 0 1.337.21 1.874.57a7.629 7.629 0 01-1.047 3.528c-1.08 1.807-2.384 2.998-4.933 3.772a8.841 8.841 0 01-4.1.244v-4.742zm1.813 13.945l-.652-.65a3.933 3.933 0 01-1.161-2.802v-4.176c1.217.18 2.804.198 4.552-.332a10.382 10.382 0 003.541-1.89c.317.437.754.892 1.353 1.274a5.02 5.02 0 002.136.753v4.371a3.932 3.932 0 01-1.162 2.801l-.65.651a2.96 2.96 0 01-2.106.871h-3.746c-.795 0-1.543-.31-2.105-.87zm4.236 4.402a6.402 6.402 0 01-2.558-.43c.348-.43.557-.97.573-1.547h3.454c.015.579.225 1.121.575 1.553a6.373 6.373 0 01-2.044.424zm17.212 9.32a.777.777 0 00-.777.776v2.439a.777.777 0 101.554 0v-2.439a.777.777 0 00-.777-.777zm16.599-9.19a5.13 5.13 0 001.834-3.947v-9.299a10.09 10.09 0 00-2.977-7.184 10.09 10.09 0 00-7.18-2.973h-.006c-5.598.003-10.152 4.56-10.152 10.157v9.304c0 1.542.705 2.978 1.84 3.94a7.176 7.176 0 00-3.294 1.922.777.777 0 101.111 1.087c1.387-1.596 4.695-1.967 6.58-2.613a8.11 8.11 0 003.928 1.035c1.504 0 3.07-.54 3.913-1.034 4.567 1.202 7.908 1.795 8.175 6.518v5.492a.777.777 0 101.554 0V46.73c0-3.242-2.213-6.076-5.326-6.913zm.28-9.224a.484.484 0 01-.482.486h-.869v-2.942h.87c.265 0 .48.218.48.486v1.97zm-17.206-4.022c0-4.74 3.857-8.6 8.598-8.603h.005c2.297 0 4.456.894 6.081 2.518A8.547 8.547 0 0148 26.572v.072a2.023 2.023 0 00-.482-.06h-.879a.776.776 0 00-.806-.658 3.406 3.406 0 01-1.999-.534 3.483 3.483 0 01-1.27-1.49.777.777 0 00-1.26-.233 8.731 8.731 0 01-3.58 2.158 8.634 8.634 0 01-4.615.12.777.777 0 00-.955.637h-.879c-.166 0-.327.022-.481.06v-.072zm14.301.877v4.36c0 1.056-.407 2.05-1.145 2.795l-.642.65a2.886 2.886 0 01-2.065.864H37.55c-.78 0-1.513-.307-2.065-.864l-.642-.65a3.948 3.948 0 01-1.145-2.795v-4.162a10.145 10.145 0 007.965-2.21 4.931 4.931 0 003.432 2.012zm-14.301 1.175c0-.268.216-.486.481-.486h.87v2.942h-.87a.484.484 0 01-.481-.486v-1.97zm5.325 9.019c0 .455-.307.86-.745.983l-2.225.626a3.622 3.622 0 01-2.355-3.376v-3.302c.154.038.315.06.481.06h.93a5.48 5.48 0 001.533 3.063l.643.65c.496.502 1.09.87 1.737 1.09v.206zm3.536 2.045a6.401 6.401 0 01-2.558-.43c.356-.44.567-.994.574-1.585h3.45c.007.593.22 1.15.577 1.59a6.37 6.37 0 01-2.043.425zm5.98-.438c-.068-.02-2.137-.598-2.246-.632a1.024 1.024 0 01-.714-.973v-.208a4.45 4.45 0 001.737-1.09c1.053-1.064 1.984-2.176 2.176-3.713h.93c.166 0 .327-.022.481-.06v3.297a3.579 3.579 0 01-2.363 3.38z" fill="#3035C4"/><path d="M6.823 5.232h5.417a.777.777 0 100-1.554H6.823a.777.777 0 100 1.554zm-2.938 6.683a.777.777 0 100-1.554 2.334 2.334 0 01-2.331-2.332V3.885a2.334 2.334 0 012.331-2.33H15.8a2.334 2.334 0 012.33 2.33V8.03a2.334 2.334 0 01-2.33 2.332h-.428c-.954 0-1.73.775-1.73 1.73v.353l-1.396-1.522a1.735 1.735 0 00-1.276-.562H7.252a.777.777 0 100 1.555h3.718c.05 0 .097.02.13.057l2.025 2.21c.337.367.855.482 1.31.305.462-.18.76-.616.76-1.11V12.09c0-.098.08-.176.177-.176h.428a3.89 3.89 0 003.885-3.886V3.885A3.89 3.89 0 0015.8 0H3.885A3.89 3.89 0 000 3.885V8.03a3.89 3.89 0 003.885 3.886zM6.823 8.34h5.417a.777.777 0 100-1.554H6.823a.777.777 0 100 1.554zM49.16 0H37.246a3.89 3.89 0 00-3.885 3.885V8.03a3.89 3.89 0 003.885 3.886c.16 0 .607-.104.604.176v1.285c0 .495.298.931.76 1.11.455.178.973.063 1.31-.305l2.025-2.21a.177.177 0 01.13-.056h7.085a3.89 3.89 0 003.886-3.886V3.885A3.89 3.89 0 0049.16 0zm2.332 8.03a2.334 2.334 0 01-2.332 2.33h-7.085c-.483 0-.948.205-1.275.562l-1.396 1.522v-.354c0-.954-.776-1.73-1.73-1.73h-.428a2.334 2.334 0 01-2.331-2.33V3.884a2.334 2.334 0 012.33-2.33H49.16a2.334 2.334 0 012.332 2.33V8.03zm-5.27-4.352h-5.417a.777.777 0 100 1.554h5.418a.777.777 0 100-1.554zm0 3.108h-5.417a.777.777 0 100 1.554h5.418a.777.777 0 100-1.554z" fill="#E6514A"/></svg><svg fill="none" viewBox="0 0 57 57" id="benefit-6" xmlns="http://www.w3.org/2000/svg"><path d="M54.49 0H43.387a.837.837 0 100 1.674H54.49c.462 0 .837.375.837.836v16.84a.838.838 0 01-.837.837H31.471v-.403a2.963 2.963 0 00-2.96-2.96 2.963 2.963 0 00-2.96 2.96v.402H17.03a.837.837 0 000 1.674h8.522v14.743l-1.987-2.227a6.478 6.478 0 00-4.83-2.163 1.91 1.91 0 00-1.656.943 1.91 1.91 0 00-.036 1.906l3.332 6.12a16.55 16.55 0 003.131 4.082l3.55 3.379v1.792a1.916 1.916 0 00-1.522 1.873v2.78c0 1.055.858 1.913 1.913 1.913h13.19a1.915 1.915 0 001.913-1.912v-2.782c0-.9-.627-1.657-1.467-1.858v-1.86c.762-.962 3.126-4.492 3.126-11.273v-5.11a2.963 2.963 0 00-2.96-2.96c-.545 0-1.056.15-1.495.407a2.965 2.965 0 00-2.75-1.865c-.546 0-1.057.148-1.496.407a2.965 2.965 0 00-4.037-1.571V21.86h23.02A2.513 2.513 0 0057 19.349V2.51A2.512 2.512 0 0054.49 0zM32.757 28.001c.71 0 1.287.577 1.287 1.287v1.459a.837.837 0 101.673 0 1.288 1.288 0 012.573 0v1.458a.837.837 0 101.674 0 1.287 1.287 0 012.572 0v5.11c0 7.188-2.87 10.364-2.897 10.392a.836.836 0 00-.23.576v2.11h-2.02a.837.837 0 100 1.674h3.249a.24.24 0 01.24.24v2.78a.24.24 0 01-.24.24H27.447a.24.24 0 01-.24-.24v-2.78a.24.24 0 01.24-.24h6.595a.837.837 0 100-1.673H28.73v-2.111a.836.836 0 00-.26-.606l-3.81-3.626a14.874 14.874 0 01-2.816-3.67l-3.332-6.12c-.078-.212 0-.344.223-.376a4.8 4.8 0 013.58 1.604l3.417 3.829c.485.57 1.516.206 1.493-.557V19.783a1.287 1.287 0 012.573 0v9.505a.837.837 0 001.673 0c0-.71.577-1.287 1.287-1.287zm-19.074-7.816H2.51a.838.838 0 01-.837-.836V2.509c0-.46.375-.836.837-.836h37.53a.837.837 0 100-1.673H2.51A2.513 2.513 0 000 2.51v16.839a2.513 2.513 0 002.51 2.51h11.173a.837.837 0 100-1.674z" fill="#3035C4"/><path d="M34.005 10.3a1.774 1.774 0 00.453-1.834 1.78 1.78 0 00-1.445-1.219l-1.948-.283a.117.117 0 01-.088-.064l-.871-1.765a1.779 1.779 0 00-1.606-.998 1.78 1.78 0 00-1.605.998L26.024 6.9a.117.117 0 01-.088.064l-1.949.283a1.78 1.78 0 00-1.445 1.219 1.779 1.779 0 00.453 1.835l1.41 1.374c.027.027.04.066.033.104l-.332 1.94a1.78 1.78 0 00.712 1.75 1.78 1.78 0 001.885.137l1.743-.916a.117.117 0 01.109 0l1.742.916a1.785 1.785 0 001.886-.136 1.78 1.78 0 00.712-1.751l-.333-1.94a.117.117 0 01.034-.104l1.41-1.374zm-2.577.177a1.79 1.79 0 00-.515 1.585l.333 1.94c.003.02.012.072-.047.114-.059.043-.106.018-.123.01l-1.743-.917a1.789 1.789 0 00-1.666 0l-1.742.916a.108.108 0 01-.124-.008.107.107 0 01-.046-.115l.332-1.94a1.79 1.79 0 00-.514-1.585l-1.41-1.374c-.014-.014-.052-.05-.03-.12a.107.107 0 01.095-.08l1.948-.283a1.79 1.79 0 001.348-.98l.871-1.764a.106.106 0 01.105-.066c.073 0 .096.048.105.066l.871 1.765c.261.528.765.894 1.348.98l1.948.282c.02.003.073.01.095.08a.104.104 0 01-.03.12l-1.41 1.374zM16.214 13.72l-.333-1.941a.116.116 0 01.034-.104l1.41-1.374a1.779 1.779 0 00.453-1.835 1.78 1.78 0 00-1.446-1.218l-1.948-.284a.117.117 0 01-.088-.064l-.871-1.765a1.78 1.78 0 00-1.606-.998 1.78 1.78 0 00-1.605.998L9.343 6.9a.118.118 0 01-.088.064l-1.949.283a1.78 1.78 0 00-1.445 1.219 1.779 1.779 0 00.453 1.835l1.41 1.374c.028.027.04.066.034.104l-.333 1.94a1.779 1.779 0 00.712 1.751 1.78 1.78 0 001.886.136l1.742-.916a.117.117 0 01.109 0l1.743.916a1.784 1.784 0 001.886-.136 1.78 1.78 0 00.711-1.75zm-1.467-3.243a1.79 1.79 0 00-.515 1.585l.333 1.94a.107.107 0 01-.047.114c-.058.043-.105.018-.123.01l-1.742-.917a1.79 1.79 0 00-1.667 0l-1.742.916a.106.106 0 01-.123-.008.107.107 0 01-.047-.115l.333-1.94a1.79 1.79 0 00-.515-1.585l-1.41-1.374c-.014-.014-.052-.051-.03-.12a.107.107 0 01.095-.08l1.948-.283a1.79 1.79 0 001.348-.98l.872-1.764a.107.107 0 01.105-.066c.072 0 .096.048.105.066l.87 1.765c.261.528.765.894 1.349.98l1.948.282c.02.003.072.01.094.08a.107.107 0 01-.03.12l-1.409 1.374zm35.94-.177a1.778 1.778 0 00.453-1.834 1.78 1.78 0 00-1.446-1.219l-1.948-.283a.117.117 0 01-.088-.064l-.871-1.765a1.78 1.78 0 00-1.605-.998 1.78 1.78 0 00-1.606.998L42.705 6.9a.118.118 0 01-.088.064l-1.949.283a1.779 1.779 0 00-1.445 1.219 1.779 1.779 0 00.453 1.835l1.41 1.374c.027.027.04.066.033.104l-.332 1.94a1.78 1.78 0 00.712 1.751 1.78 1.78 0 001.885.136l1.743-.916a.117.117 0 01.109 0l1.742.916a1.784 1.784 0 001.886-.136 1.78 1.78 0 00.712-1.75l-.333-1.941a.117.117 0 01.034-.104l1.41-1.374zm-2.578.177a1.79 1.79 0 00-.515 1.585l.333 1.94c.003.02.012.072-.047.114-.058.043-.106.018-.123.01l-1.742-.917a1.789 1.789 0 00-1.667 0l-1.742.916a.106.106 0 01-.123-.008c-.06-.043-.05-.095-.047-.115l.333-1.94a1.79 1.79 0 00-.515-1.585l-1.41-1.374c-.014-.014-.052-.051-.03-.12a.107.107 0 01.095-.08l1.949-.283a1.791 1.791 0 001.347-.98l.872-1.764a.107.107 0 01.105-.066c.072 0 .096.048.104.066l.872 1.765c.26.528.764.894 1.348.98l1.948.282c.02.003.072.01.094.08a.107.107 0 01-.03.12l-1.409 1.374z" fill="#E6514A"/></svg><svg fill="none" viewBox="0 0 24 24" id="check" xmlns="http://www.w3.org/2000/svg"><path d="M12 0C5.373 0 0 5.373 0 12s5.373 12 12 12 12-5.373 12-12S18.627 0 12 0zm6.734 8.236c-1.323 1.326-2.215 2.098-4.7 5.095a84.407 84.407 0 00-2.8 3.6l-.595.742a.352.352 0 01-.52.043L5.342 13.28a1.202 1.202 0 01-.063-1.696 1.202 1.202 0 011.696-.063l2.861 2.66c.15.138.385.122.516-.036a25.327 25.327 0 011.702-1.871c2.46-2.48 3.97-3.81 4.778-4.4.982-.714 2.108-1.325 2.38-.987.423.53.164.704-.48 1.35z" fill="#E6514A"/></svg><svg fill="none" viewBox="0 0 53 52" id="five" xmlns="http://www.w3.org/2000/svg"><path d="M51.738 0H1.262A.762.762 0 00.5.762v50.476c0 .421.34.762.762.762h50.476a.762.762 0 00.762-.762V.762A.76.76 0 0051.738 0zm-.761 50.477H2.023V1.523h48.954v48.954z" fill="#3035C4"/><path d="M48.691 3.047H4.31a.762.762 0 00-.762.762v4.57a.762.762 0 101.523 0V4.57h42.86v42.86H5.07V11.426a.762.762 0 10-1.523 0V48.19c0 .421.34.762.762.762H48.69c.421 0 .762-.34.762-.762V3.81a.761.761 0 00-.762-.762z" fill="#3035C4"/><path d="M26.5 23.207h-1.572l1.316-6.145h5.283a2.796 2.796 0 002.793-2.793 2.796 2.796 0 00-2.793-2.792h-7.54a2.808 2.808 0 00-2.732 2.207l-2.513 11.73a2.781 2.781 0 00.559 2.342 2.781 2.781 0 002.172 1.037H26.5a2.237 2.237 0 012.234 2.234v1.676a2.237 2.237 0 01-2.234 2.234 2.237 2.237 0 01-2.234-2.234 2.796 2.796 0 00-2.793-2.793 2.796 2.796 0 00-2.793 2.793c0 4.312 3.508 7.82 7.82 7.82s7.82-3.508 7.82-7.82v-1.676c0-4.312-3.508-7.82-7.82-7.82zm6.297 9.496A6.304 6.304 0 0126.5 39a6.304 6.304 0 01-6.297-6.297 1.27 1.27 0 012.54 0 3.762 3.762 0 003.757 3.758 3.762 3.762 0 003.758-3.758v-1.676A3.762 3.762 0 0026.5 27.27h-5.027c-.386 0-.745-.171-.988-.47a1.264 1.264 0 01-.254-1.065l2.514-11.73A1.276 1.276 0 0123.986 13h7.541a1.271 1.271 0 010 2.54h-5.899a.76.76 0 00-.744.601L23.24 23.81a.761.761 0 00.744.922H26.5a6.304 6.304 0 016.297 6.296v1.676z" fill="#E6514A"/></svg><svg fill="none" viewBox="0 0 53 52" id="four" xmlns="http://www.w3.org/2000/svg"><path d="M51.738 0H1.262A.762.762 0 00.5.762v50.476c0 .421.34.762.762.762h50.476a.762.762 0 00.762-.762V.762A.76.76 0 0051.738 0zm-.761 50.477H2.023V1.523h48.954v48.954z" fill="#3035C4"/><path d="M48.691 3.047H4.31a.762.762 0 00-.762.762v4.57a.762.762 0 101.523 0V4.57h42.86v42.86H5.07V11.426a.762.762 0 10-1.523 0V48.19c0 .421.34.762.762.762H48.69c.421 0 .762-.34.762-.762V3.81a.761.761 0 00-.762-.762z" fill="#3035C4"/><path d="M27.988 22.517a.762.762 0 00-.855.415l-3.131 6.575a.762.762 0 00.688 1.089h3.13a.762.762 0 00.762-.762V23.26a.762.762 0 00-.594-.743zm-.93 6.555h-1.162l1.163-2.44v2.44z" fill="#E6514A"/><path d="M32.645 29.304V14.27a2.778 2.778 0 00-2.178-2.725 2.806 2.806 0 00-3.137 1.524l-8.379 17.596a2.779 2.779 0 00.16 2.691 2.779 2.779 0 002.362 1.302h5.586v3.073a2.796 2.796 0 002.793 2.792 2.796 2.796 0 002.793-2.792v-3.304a2.788 2.788 0 001.675-2.562 2.789 2.789 0 00-1.675-2.561zm-.895 3.812a.762.762 0 00-.629.75v3.865a1.271 1.271 0 01-2.54 0v-3.834a.76.76 0 00-.76-.762h-6.348c-.438 0-.84-.221-1.074-.592a1.263 1.263 0 01-.073-1.223l8.38-17.596a1.275 1.275 0 011.425-.693c.583.132.99.641.99 1.239v15.595c0 .37.265.686.63.75a1.266 1.266 0 011.046 1.25c0 .618-.44 1.143-1.047 1.25z" fill="#E6514A"/></svg><svg fill="none" viewBox="0 0 53 52" id="one" xmlns="http://www.w3.org/2000/svg"><path d="M51.738 0H1.262A.762.762 0 00.5.762v50.476c0 .421.341.762.762.762h50.476a.762.762 0 00.762-.762V.762A.762.762 0 0051.738 0zm-.761 50.477H2.023V1.523h48.954v48.954z" fill="#3035C4"/><path d="M48.691 3.047H4.31a.762.762 0 00-.762.762v4.57a.762.762 0 001.523 0V4.57h42.86v42.86H5.07V11.426a.762.762 0 10-1.523 0V48.19c0 .421.34.762.762.762H48.69c.421 0 .762-.34.762-.762V3.81a.762.762 0 00-.762-.762z" fill="#3035C4"/><path d="M28.405 11.622a2.787 2.787 0 00-.89-.145c-.868 0-1.7.413-2.226 1.106l-5.078 6.703a2.796 2.796 0 002.225 4.48c.883 0 1.695-.403 2.228-1.107l.059-.077V37.73a2.796 2.796 0 002.793 2.793 2.796 2.796 0 002.793-2.793V14.27a2.79 2.79 0 00-1.904-2.648zm.38 26.108a1.27 1.27 0 01-2.54 0V20.316a.762.762 0 00-1.368-.46L23.45 21.74c-.243.32-.612.503-1.014.503a1.27 1.27 0 01-1.01-2.036l5.078-6.703a1.277 1.277 0 011.416-.437c.517.174.865.658.865 1.204v23.46z" fill="#E6514A"/></svg><svg fill="none" viewBox="0 0 20 20" id="phone" xmlns="http://www.w3.org/2000/svg"><path d="M19.552 15.819l-3.09-3.096c-.614-.614-1.633-.596-2.27.043l-1.556 1.56-.307-.172c-.982-.546-2.328-1.294-3.743-2.713-1.42-1.423-2.166-2.773-2.712-3.758-.058-.105-.113-.205-.168-.301l1.045-1.045.513-.515c.638-.64.655-1.66.042-2.276L4.216.449c-.613-.615-1.632-.596-2.27.043l-.87.878.024.023a5.048 5.048 0 00-.718 1.268 5.267 5.267 0 00-.319 1.287c-.408 3.388 1.137 6.485 5.33 10.688 5.797 5.809 10.467 5.37 10.669 5.349a5.21 5.21 0 001.287-.324c.46-.18.888-.424 1.26-.716l.02.017.881-.866c.637-.639.655-1.66.042-2.277z" fill="#E6514A"/></svg><svg fill="none" viewBox="0 0 38 38" id="phone-2" xmlns="http://www.w3.org/2000/svg"><rect width="38" height="38" rx="19" fill="#E6514A"/><path d="M28.552 24.819l-3.09-3.096c-.614-.614-1.633-.595-2.27.043l-1.556 1.56-.307-.172c-.983-.546-2.328-1.294-3.743-2.713-1.42-1.423-2.166-2.773-2.712-3.758-.058-.105-.113-.205-.168-.301l1.045-1.045.513-.515c.638-.64.655-1.66.042-2.276l-3.09-3.097c-.613-.615-1.632-.596-2.27.043l-.87.877.024.024a5.05 5.05 0 00-.718 1.268 5.268 5.268 0 00-.319 1.287c-.408 3.388 1.137 6.485 5.33 10.688 5.797 5.809 10.467 5.37 10.669 5.349a5.21 5.21 0 001.287-.324c.46-.18.888-.424 1.26-.716l.02.017.881-.866c.637-.639.655-1.66.042-2.277z" fill="#fff"/></svg><svg fill="none" viewBox="0 0 53 52" id="three" xmlns="http://www.w3.org/2000/svg"><path d="M51.738 0H1.262A.762.762 0 00.5.762v50.476c0 .421.341.762.762.762h50.476a.762.762 0 00.762-.762V.762A.76.76 0 0051.738 0zm-.761 50.477H2.023V1.523h48.954v48.954z" fill="#3035C4"/><path d="M48.691 3.047H4.31a.762.762 0 00-.762.762v4.57a.762.762 0 001.523 0V4.57h42.86v42.86H5.07V11.426a.762.762 0 10-1.523 0V48.19c0 .421.34.762.762.762H48.69c.421 0 .762-.34.762-.762V3.81a.761.761 0 00-.762-.762z" fill="#3035C4"/><path d="M34.32 19.297c0-4.312-3.508-7.82-7.82-7.82s-7.82 3.508-7.82 7.82a2.796 2.796 0 002.793 2.793 2.796 2.796 0 002.793-2.793 2.237 2.237 0 012.234-2.235 2.237 2.237 0 012.234 2.235v1.676a2.237 2.237 0 01-2.234 2.234A2.796 2.796 0 0023.707 26a2.796 2.796 0 002.793 2.793 2.237 2.237 0 012.234 2.234v1.676a2.237 2.237 0 01-2.234 2.234 2.237 2.237 0 01-2.234-2.234 2.796 2.796 0 00-2.793-2.793 2.796 2.796 0 00-2.793 2.793c0 4.312 3.508 7.82 7.82 7.82s7.82-3.508 7.82-7.82v-1.676A7.75 7.75 0 0032.487 26a7.749 7.749 0 001.833-5.027v-1.676zm-1.523 1.676a6.25 6.25 0 01-1.881 4.484.762.762 0 000 1.086 6.25 6.25 0 011.88 4.484v1.676A6.304 6.304 0 0126.5 39a6.304 6.304 0 01-6.297-6.297 1.27 1.27 0 012.54 0 3.762 3.762 0 003.757 3.758 3.762 3.762 0 003.758-3.758v-1.676A3.762 3.762 0 0026.5 27.27c-.7 0-1.27-.569-1.27-1.269s.57-1.27 1.27-1.27a3.762 3.762 0 003.758-3.757v-1.676A3.762 3.762 0 0026.5 15.54a3.762 3.762 0 00-3.758 3.758 1.271 1.271 0 01-2.54 0A6.304 6.304 0 0126.501 13a6.304 6.304 0 016.297 6.297v1.676z" fill="#E6514A"/></svg><svg fill="none" viewBox="0 0 53 52" id="two" xmlns="http://www.w3.org/2000/svg"><path d="M51.738 0H1.262A.762.762 0 00.5.762v50.476c0 .421.341.762.762.762h50.476a.762.762 0 00.762-.762V.762A.762.762 0 0051.738 0zm-.761 50.477H2.023V1.523h48.954v48.954z" fill="#3035C4"/><path d="M48.691 3.047H4.31a.762.762 0 00-.762.762v4.57a.762.762 0 001.523 0V4.57h42.86v42.86H5.07V11.426a.762.762 0 10-1.523 0V48.19c0 .421.34.762.762.762H48.69c.421 0 .762-.34.762-.762V3.81a.762.762 0 00-.762-.762z" fill="#3035C4"/><path d="M31.527 34.938H26.36l6.879-11.674a7.818 7.818 0 001.081-3.967c0-4.312-3.508-7.82-7.82-7.82s-7.82 3.508-7.82 7.82a2.796 2.796 0 002.793 2.793 2.796 2.796 0 002.793-2.793 2.237 2.237 0 012.234-2.235 2.237 2.237 0 011.927 3.366l-9.36 15.885a2.799 2.799 0 00-.02 2.803 2.799 2.799 0 002.426 1.407h10.054a2.796 2.796 0 002.793-2.793 2.796 2.796 0 00-2.793-2.792zm0 4.062H21.473a1.272 1.272 0 01-1.094-1.914l9.36-15.884a3.75 3.75 0 00.519-1.905 3.762 3.762 0 00-3.758-3.758 3.762 3.762 0 00-3.758 3.758 1.271 1.271 0 01-2.54 0A6.304 6.304 0 0126.501 13a6.304 6.304 0 016.297 6.297 6.293 6.293 0 01-.87 3.194L24.37 35.313a.761.761 0 00.656 1.148h6.5a1.271 1.271 0 010 2.54z" fill="#E6514A"/></svg><svg fill="none" viewBox="0 0 24 24" id="whatsapp" xmlns="http://www.w3.org/2000/svg"><path d="M12.003 0h-.006C5.38 0 0 5.382 0 12c0 2.625.846 5.058 2.284 7.034L.79 23.49l4.613-1.474a11.896 11.896 0 006.6 1.984C18.619 24 24 18.616 24 12c0-6.617-5.38-12-11.997-12z" fill="#4CAF50"/><path d="M18.986 16.945c-.29.818-1.439 1.496-2.355 1.694-.627.134-1.446.24-4.203-.903-3.527-1.461-5.798-5.045-5.975-5.277-.17-.232-1.425-1.897-1.425-3.62 0-1.721.875-2.56 1.227-2.92.29-.295.768-.43 1.227-.43.149 0 .282.007.402.013.353.015.53.036.762.593.29.697.995 2.419 1.079 2.596.085.177.17.417.05.65-.112.24-.21.346-.388.55-.177.204-.345.36-.522.579-.162.19-.345.394-.14.747.203.345.908 1.495 1.946 2.42 1.34 1.192 2.426 1.573 2.814 1.735.29.12.635.091.846-.133.269-.29.6-.77.938-1.243.24-.338.543-.38.86-.26.325.112 2.04.96 2.392 1.135.352.177.585.261.67.41.084.148.084.845-.205 1.664z" fill="#FAFAFA"/></svg></svg>