<svg width="53" height="52" viewBox="0 0 53 52" fill="none" xmlns="http://www.w3.org/2000/svg">
<path d="M51.7383 0H1.26172C0.841047 0 0.5 0.341047 0.5 0.761719V51.2383C0.5 51.659 0.841047 52 1.26172 52H51.7383C52.159 52 52.5 51.659 52.5 51.2383V0.761719C52.5 0.341047 52.159 0 51.7383 0ZM50.9766 50.4766H2.02344V1.52344H50.9766V50.4766Z" fill="#3035C4"/>
<path d="M48.6914 3.04688H4.30859C3.88792 3.04688 3.54688 3.38792 3.54688 3.80859V8.37891C3.54688 8.79958 3.88792 9.14062 4.30859 9.14062C4.72927 9.14062 5.07031 8.79958 5.07031 8.37891V4.57031H47.9297V47.4297H5.07031V11.4258C5.07031 11.0051 4.72927 10.6641 4.30859 10.6641C3.88792 10.6641 3.54688 11.0051 3.54688 11.4258V48.1914C3.54688 48.6121 3.88792 48.9531 4.30859 48.9531H48.6914C49.1121 48.9531 49.4531 48.6121 49.4531 48.1914V3.80859C49.4531 3.38792 49.1121 3.04688 48.6914 3.04688Z" fill="#3035C4"/>
<path d="M31.5273 34.9375H26.3602L33.239 23.2641C33.9464 22.064 34.3203 20.6921 34.3203 19.2969C34.3203 14.9847 30.8121 11.4766 26.5 11.4766C22.1879 11.4766 18.6797 14.9847 18.6797 19.2969C18.6797 20.837 19.9326 22.0898 21.4727 22.0898C23.0128 22.0898 24.2656 20.837 24.2656 19.2969C24.2656 18.0648 25.2679 17.0625 26.5 17.0625C27.7321 17.0625 28.7344 18.0648 28.7344 19.2969C28.7344 19.6952 28.6279 20.0862 28.4266 20.4279L19.0664 36.3126C18.5588 37.1739 18.5517 38.2482 19.0477 39.1162C19.5437 39.9842 20.4729 40.5234 21.4727 40.5234H31.5273C33.0674 40.5234 34.3203 39.2706 34.3203 37.7305C34.3203 36.1904 33.0674 34.9375 31.5273 34.9375ZM31.5273 39.0001H21.4727C21.0183 39.0001 20.5959 38.7549 20.3704 38.3605C20.1449 37.9659 20.1482 37.4777 20.3788 37.0862L29.739 21.2016C30.0785 20.6256 30.2578 19.9671 30.2578 19.2969C30.2578 17.2248 28.5721 15.5391 26.5 15.5391C24.4279 15.5391 22.7422 17.2248 22.7422 19.2969C22.7422 19.9969 22.1727 20.5664 21.4727 20.5664C20.7726 20.5664 20.2031 19.9969 20.2031 19.2969C20.2031 15.8248 23.0279 13 26.5 13C29.9721 13 32.7969 15.8248 32.7969 19.2969C32.7969 20.4203 32.4959 21.5246 31.9265 22.4906L24.371 35.3126C24.2322 35.5481 24.2303 35.8399 24.366 36.0772C24.5017 36.3146 24.7539 36.461 25.0273 36.461H31.5273C32.2274 36.461 32.7969 37.0305 32.7969 37.7306C32.7969 38.4306 32.2274 39.0001 31.5273 39.0001Z" fill="#E6514A"/>
</svg>
