<svg width="24" height="24" viewBox="0 0 24 24" fill="none" xmlns="http://www.w3.org/2000/svg">
<path d="M12.003 0H11.997C5.3805 0 0 5.382 0 12C0 14.625 0.846 17.058 2.2845 19.0335L0.789 23.4915L5.4015 22.017C7.299 23.274 9.5625 24 12.003 24C18.6195 24 24 18.6165 24 12C24 5.3835 18.6195 0 12.003 0Z" fill="#4CAF50"/>
<path d="M18.9856 16.9455C18.6961 17.763 17.5471 18.441 16.6306 18.639C16.0036 18.7725 15.1846 18.879 12.4276 17.736C8.90114 16.275 6.63014 12.6915 6.45314 12.459C6.28364 12.2265 5.02814 10.5615 5.02814 8.83953C5.02814 7.11753 5.90264 6.27903 6.25514 5.91903C6.54464 5.62353 7.02314 5.48853 7.48214 5.48853C7.63064 5.48853 7.76414 5.49603 7.88414 5.50203C8.23664 5.51703 8.41364 5.53803 8.64614 6.09453C8.93564 6.79203 9.64064 8.51403 9.72464 8.69103C9.81014 8.86803 9.89564 9.10803 9.77564 9.34053C9.66314 9.58053 9.56414 9.68703 9.38714 9.89103C9.21014 10.095 9.04214 10.251 8.86514 10.47C8.70314 10.6605 8.52014 10.8645 8.72414 11.217C8.92814 11.562 9.63314 12.7125 10.6711 13.6365C12.0106 14.829 13.0966 15.21 13.4851 15.372C13.7746 15.492 14.1196 15.4635 14.3311 15.2385C14.5996 14.949 14.9311 14.469 15.2686 13.9965C15.5086 13.6575 15.8116 13.6155 16.1296 13.7355C16.4536 13.848 18.1681 14.6955 18.5206 14.871C18.8731 15.048 19.1056 15.132 19.1911 15.2805C19.2751 15.429 19.2751 16.1265 18.9856 16.9455Z" fill="#FAFAFA"/>
</svg>
